<!-- This Source Code Form is subject to the terms of the Mozilla Public
   - License, v. 2.0. If a copy of the MPL was not distributed with this
   - file, You can obtain one at http://mozilla.org/MPL/2.0/. -->
<svg width="16" height="16" xmlns="http://www.w3.org/2000/svg" viewBox="0 0 16 16">
  <style>
    path {
      --basiccolor: rgb(20,20,20);
      --iconStroke: var(--basiccolor);
      --icon-fill: #A0A0A0;
    }
    @media (prefers-color-scheme: dark) {
      path { 
        --basiccolor: rgb(251,251,254);
        --iconStroke: var(--basiccolor);
        --icon-fill: #606060;
      }
    }        
  </style> 
  <path 
    d="M9 3H3v10h10V5.828L10.172 3H3v3h5a1 1 0 0 0 1-1V3zM3 1h7.172a2 2 0 0 1 1.414.586l2.828 2.828A2 2 0 0 1 15 5.828V13a2 2 0 0 1-2 2H3a2 2 0 0 1-2-2V3a2 2 0 0 1 2-2zm5 11a2 2 0 1 1 0-4 2 2 0 0 1 0 4z"
    style="fill:var(--iconStroke);"  
    />
</svg>
