<?xml version="1.0" encoding="UTF-8" standalone="no"?>
<svg
   width="149.32889mm"
   height="148.68889mm"
   viewBox="0 0 149.32889 148.68889"
   version="1.1"
   id="svg871"
   inkscape:version="1.3.2 (091e20e, 2023-11-25, custom)"
   sodipodi:docname="select-template.svg"
   xmlns:inkscape="http://www.inkscape.org/namespaces/inkscape"
   xmlns:sodipodi="http://sodipodi.sourceforge.net/DTD/sodipodi-0.dtd"
   xmlns="http://www.w3.org/2000/svg"
   xmlns:svg="http://www.w3.org/2000/svg"
   xmlns:rdf="http://www.w3.org/1999/02/22-rdf-syntax-ns#"
   xmlns:cc="http://creativecommons.org/ns#"
   xmlns:dc="http://purl.org/dc/elements/1.1/">
  <defs
     id="defs865">
    <rect
       x="113.58955"
       y="51.850288"
       width="60.135643"
       height="63.610149"
       id="rect851" />
    <rect
       x="113.58955"
       y="51.850288"
       width="60.135643"
       height="63.610149"
       id="rect851-3" />
  </defs>
  <sodipodi:namedview
     id="base"
     pagecolor="#ffffff"
     bordercolor="#666666"
     borderopacity="1.0"
     inkscape:pageopacity="0.0"
     inkscape:pageshadow="2"
     inkscape:zoom="0.7"
     inkscape:cx="-20.714286"
     inkscape:cy="392.85714"
     inkscape:document-units="mm"
     inkscape:current-layer="layer1"
     inkscape:document-rotation="0"
     showgrid="false"
     showguides="true"
     inkscape:guide-bbox="true"
     inkscape:window-width="1707"
     inkscape:window-height="1198"
     inkscape:window-x="191"
     inkscape:window-y="1606"
     inkscape:window-maximized="0"
     fit-margin-top="0"
     fit-margin-left="0"
     fit-margin-right="0"
     fit-margin-bottom="0"
     inkscape:showpageshadow="0"
     inkscape:pagecheckerboard="1"
     inkscape:deskcolor="#d1d1d1">
    <sodipodi:guide
       position="22.86496,148.71048"
       orientation="0,-1"
       id="guide1434"
       inkscape:locked="false" />
    <sodipodi:guide
       position="0.18638908,375.49621"
       orientation="1,0"
       id="guide1440"
       inkscape:locked="false" />
    <sodipodi:guide
       position="149.109,276.46644"
       orientation="1,0"
       id="guide1442"
       inkscape:locked="false" />
    <sodipodi:guide
       position="-76.542778,0.16583056"
       orientation="0,-1"
       id="guide1446"
       inkscape:locked="false" />
  </sodipodi:namedview>
  <metadata
     id="metadata868">
    <rdf:RDF>
      <cc:Work
         rdf:about="">
        <dc:format>image/svg+xml</dc:format>
        <dc:type
           rdf:resource="http://purl.org/dc/dcmitype/StillImage" />
        <dc:title />
      </cc:Work>
    </rdf:RDF>
  </metadata>
  <g
     inkscape:label="Layer 1"
     inkscape:groupmode="layer"
     id="layer1"
     transform="translate(-24.760039,-24.968012)">
    <ellipse
       style="fill:none;stroke:#000000;stroke-width:12.6034;stroke-opacity:1"
       id="path1450"
       cx="59.153271"
       cy="59.909218"
       rx="27.713556"
       ry="28.639505" />
    <ellipse
       style="fill:#000000;fill-opacity:1;stroke:#000000;stroke-width:13.303;stroke-miterlimit:4;stroke-dasharray:none;stroke-opacity:1"
       id="ellipse1452"
       cx="59.153271"
       cy="138.90625"
       rx="27.713556"
       ry="28.639505" />
    <path
       style="font-weight:bold;font-size:10.5833px;line-height:1.25;font-family:Arial;-inkscape-font-specification:'Arial Bold';white-space:pre;fill:#f84b39;stroke:#ffffff;stroke-width:0.244222"
       d="m 115.43469,57.691366 -1.31775,-0.237711 q 0.22221,-0.795814 0.76481,-1.178219 0.5426,-0.382404 1.6123,-0.382404 0.97151,0 1.44694,0.232543 0.47542,0.227376 0.66662,0.583942 0.19637,0.351398 0.19637,1.297074 l -0.0155,1.694982 q 0,0.723467 0.0672,1.069698 0.0723,0.341064 0.26354,0.733803 h -1.4366 q -0.0568,-0.144693 -0.13952,-0.428913 -0.0362,-0.12919 -0.0517,-0.170531 -0.37207,0.361734 -0.79581,0.542601 -0.42375,0.180867 -0.90434,0.180867 -0.84749,0 -1.33841,-0.459919 -0.48576,-0.459919 -0.48576,-1.162716 0,-0.465087 0.22221,-0.826821 0.22221,-0.366901 0.62011,-0.558103 0.40308,-0.19637 1.15755,-0.341064 1.01802,-0.191202 1.41076,-0.356566 v -0.144693 q 0,-0.418578 -0.2067,-0.594277 -0.20671,-0.180867 -0.78031,-0.180867 -0.38757,0 -0.60461,0.155028 -0.21705,0.149862 -0.3514,0.532266 z m 1.94302,1.178219 q -0.27905,0.09302 -0.88366,0.222208 -0.60461,0.12919 -0.79065,0.253213 -0.28422,0.201538 -0.28422,0.511596 0,0.30489 0.22738,0.527097 0.22737,0.222208 0.57877,0.222208 0.39274,0 0.74931,-0.258381 0.26355,-0.19637 0.34623,-0.480589 0.0568,-0.186035 0.0568,-0.707965 z"
       id="text849"
       transform="matrix(12.292226,0,0,11.285601,-1293.2903,-601.29518)"
       aria-label="a" />
    <path
       style="font-weight:bold;font-size:10.5833px;line-height:1.25;font-family:Arial;-inkscape-font-specification:'Arial Bold';white-space:pre;fill:#396df8;stroke:#ffffff;stroke-width:0.244222"
       d="m 115.43469,57.691366 -1.31775,-0.237711 q 0.22221,-0.795814 0.76481,-1.178219 0.5426,-0.382404 1.6123,-0.382404 0.97151,0 1.44694,0.232543 0.47542,0.227376 0.66662,0.583942 0.19637,0.351398 0.19637,1.297074 l -0.0155,1.694982 q 0,0.723467 0.0672,1.069698 0.0723,0.341064 0.26354,0.733803 h -1.4366 q -0.0568,-0.144693 -0.13952,-0.428913 -0.0362,-0.12919 -0.0517,-0.170531 -0.37207,0.361734 -0.79581,0.542601 -0.42375,0.180867 -0.90434,0.180867 -0.84749,0 -1.33841,-0.459919 -0.48576,-0.459919 -0.48576,-1.162716 0,-0.465087 0.22221,-0.826821 0.22221,-0.366901 0.62011,-0.558103 0.40308,-0.19637 1.15755,-0.341064 1.01802,-0.191202 1.41076,-0.356566 v -0.144693 q 0,-0.418578 -0.2067,-0.594277 -0.20671,-0.180867 -0.78031,-0.180867 -0.38757,0 -0.60461,0.155028 -0.21705,0.149862 -0.3514,0.532266 z m 1.94302,1.178219 q -0.27905,0.09302 -0.88366,0.222208 -0.60461,0.12919 -0.79065,0.253213 -0.28422,0.201538 -0.28422,0.511596 0,0.30489 0.22738,0.527097 0.22737,0.222208 0.57877,0.222208 0.39274,0 0.74931,-0.258381 0.26355,-0.19637 0.34623,-0.480589 0.0568,-0.186035 0.0568,-0.707965 z"
       id="text849-9"
       transform="matrix(12.292226,0,0,11.285601,-1291.5895,-521.92013)"
       aria-label="a" />
  </g>
</svg>
