<?xml version="1.0" encoding="UTF-8" standalone="no"?>
<!-- Created with Inkscape (http://www.inkscape.org/) -->

<svg
   width="32"
   height="32"
   viewBox="0 0 32 32"
   version="1.1"
   id="svg1"
   inkscape:version="1.3.2 (091e20e, 2023-11-25, custom)"
   sodipodi:docname="templates.svg"
   xmlns:inkscape="http://www.inkscape.org/namespaces/inkscape"
   xmlns:sodipodi="http://sodipodi.sourceforge.net/DTD/sodipodi-0.dtd"
   xmlns:xlink="http://www.w3.org/1999/xlink"
   xmlns="http://www.w3.org/2000/svg"
   xmlns:svg="http://www.w3.org/2000/svg">
  <sodipodi:namedview
     id="namedview1"
     pagecolor="#ffffff"
     bordercolor="#111111"
     borderopacity="1"
     inkscape:showpageshadow="0"
     inkscape:pageopacity="0"
     inkscape:pagecheckerboard="1"
     inkscape:deskcolor="#d1d1d1"
     inkscape:document-units="px"
     inkscape:zoom="16"
     inkscape:cx="15.78125"
     inkscape:cy="19.375"
     inkscape:window-width="1872"
     inkscape:window-height="1278"
     inkscape:window-x="367"
     inkscape:window-y="1491"
     inkscape:window-maximized="0"
     inkscape:current-layer="layer3" />
  <defs
     id="defs1" />
   <style>
   :root {
   --basiccolor: rgb(20,20,20);
   --iconStroke: var(--basiccolor);
   --icon-fill: #DDD;
   --icon-opacity: 0.9;
   --stroke-opacity: 0.9;
   --text-fill: #161;
   --corner-fill: #a1bad7;
   --percent-fill: #000482;
   --percent-fill-opacity: 0.9;
   --percent-stroke: #11eaff;
   }
   @media (prefers-color-scheme: dark) {
      :root { 
         --basiccolor: rgb(251,251,254);
         --iconStroke: var(--basiccolor);
         --icon-fill: #606060;
         --icon-opacity: 0.8;
         --stroke-opacity: 0.8;
         --percent-fill: #12376d;
         --percent-stroke: var(--basiccolor);
         --text-fill: #666;
      }
   }    
   </style>          

  <g
     inkscape:label="Layer 1"
     inkscape:groupmode="layer"
     id="layer1">
    <g
       id="g4"
       transform="matrix(1.3992197,0,0,1.3337401,-2.6066713,-3.3383397)"
       style="display:inline;stroke-width:1.14583;stroke-dasharray:none">
      <use
         x="0"
         y="0"
         xlink:href="#g3"
         id="use3"
         transform="rotate(-16.747855,12.930191,24.723899)"
         style="stroke-width:1.14583;stroke-dasharray:none" />
      <g
         id="g3"
         transform="translate(-1.0606602,-1.4104585)"
         style="stroke-width:1.14583;stroke-dasharray:none">
        <g
           id="g2"
           style="stroke-width:1.14583;stroke-dasharray:none">
          <path
             id="rect1"
             style="fill:var(--icon-fill);var(--icon-opacity);stroke:var(--iconStroke);stroke-width:1.14583;stroke-dasharray:none"
             d="m 9.2372283,5.671968 h 7.5840727 l 4.052508,4.40301 v 12.411686 c 0,0.0601 -0.04838,0.108482 -0.108482,0.108482 H 9.2372283 c -0.0601,0 -0.108482,-0.04838 -0.108482,-0.108482 V 5.7804499 c 0,-0.060099 0.04838,-0.1084819 0.108482,-0.1084819 z"
             sodipodi:nodetypes="sccssssss" />
        </g>
        <path
           id="rect2"
           style="fill:var(--corner-fill);fill-opacity:1;stroke:var(--iconStroke);stroke-width:1.14583;stroke-dasharray:none"
           d="m 16.994695,5.6541345 c -0.05671,1e-7 -0.101979,0.042352 -0.101979,0.095425 v 3.7945487 c 0,0.05307 0.04525,0.095431 0.101979,0.095431 h 3.78115 c -0.4207,-1.1624543 -2.357574,-3.1634901 -3.78115,-3.9854047 z"
           sodipodi:nodetypes="cssscc" />
      </g>
      <use
         x="0"
         y="0"
         xlink:href="#g3"
         id="use4"
         transform="rotate(22.87167,13.646714,20.960611)"
         style="fill:var(--corner-fill);fill-opacity:1;stroke:var(--iconStroke);stroke-width:1.14583;stroke-dasharray:none" />
    </g>
  </g>
  <g
     inkscape:groupmode="layer"
     id="layer3"
     inkscape:label="text 2">
    <path
       style="font-size:23.4593px;font-family:Bahnschrift;-inkscape-font-specification:'Bahnschrift, @wght=700';font-variation-settings:'wght' 700;fill:#003b0b;stroke:#65ff11;stroke-width:0.588935"
       d="M 9.8914284,18.223762 H 12.148011 L 5.0002562,34.878948 h -2.256583 z m 1.0538356,16.827007 q -1.2829303,0 -1.9816692,-0.63001 -0.6987389,-0.641465 -0.6987389,-1.775484 v -2.485678 q 0,-1.134019 0.6987389,-1.764029 0.6987389,-0.641466 1.9816692,-0.641466 1.294385,0 1.981669,0.641466 0.698739,0.63001 0.698739,1.786938 v 2.462769 q 0,1.145473 -0.698739,1.775484 -0.698738,0.63001 -1.981669,0.63001 z m 0,-1.752574 q 0.229095,0 0.355097,-0.137457 0.137457,-0.148912 0.137457,-0.400916 V 30.02214 q 0,-0.240549 -0.137457,-0.366551 -0.126002,-0.137457 -0.355097,-0.137457 -0.229095,0 -0.366551,0.137457 -0.126003,0.126002 -0.126003,0.378006 v 2.726227 q 0,0.252004 0.126003,0.400916 0.137456,0.137457 0.366551,0.137457 z M 3.8318731,25.360063 q -1.2829304,0 -1.9816693,-0.630011 Q 1.1514649,24.088587 1.1514649,22.954568 V 20.46889 q 0,-1.134018 0.6987389,-1.764029 0.6987389,-0.641465 1.9816693,-0.641465 1.2943852,0 1.9816693,0.641465 0.6987389,0.630011 0.6987389,1.786939 v 2.462768 q 0,1.145474 -0.6987389,1.775484 -0.6987389,0.630011 -1.9816693,0.630011 z m 0,-1.752575 q 0.2290947,0 0.3550968,-0.137457 0.1374569,-0.148911 0.1374569,-0.400915 v -2.737682 q 0,-0.24055 -0.1374569,-0.366552 -0.1260021,-0.137457 -0.3550968,-0.137457 -0.2290947,0 -0.3665515,0.137457 -0.1260021,0.126002 -0.1260021,0.378006 v 2.726228 q 0,0.252004 0.1260021,0.400915 0.1374568,0.137457 0.3665515,0.137457 z"
       id="text7"
       transform="scale(1.139995,0.87719684)"
       aria-label="%" />
  </g>
  <g
     inkscape:groupmode="layer"
     id="layer2"
     inkscape:label="text">
    <path
       style="font-weight:bold;font-size:29.3333px;font-family:Georgia;-inkscape-font-specification:'Georgia Bold';fill:#e11400;stroke:#ffcc11;stroke-width:0.7"
       d="m 31.439415,30.084845 q -0.630208,0.272135 -1.489582,0.501301 -0.859374,0.229167 -1.819008,0.229167 -1.761717,0 -2.592445,-0.515625 -0.830728,-0.529947 -1.131509,-1.503904 h -0.08594 q -0.486979,0.486979 -0.945312,0.830728 -0.44401,0.34375 -0.959634,0.587239 -0.673177,0.315104 -1.303384,0.458333 -0.615885,0.157552 -1.733071,0.157552 -1.661456,0 -2.835934,-0.973957 -1.174478,-0.988281 -1.174478,-2.606768 0,-0.930989 0.257812,-1.575519 0.257812,-0.658854 0.730468,-1.160155 0.429687,-0.458333 0.98828,-0.759114 0.572916,-0.300781 1.246092,-0.558593 1.289061,-0.472656 3.093747,-0.973957 1.804685,-0.515625 2.635414,-0.916666 v -1.374998 q 0,-0.358073 -0.05729,-0.945312 -0.05729,-0.587239 -0.243489,-0.98828 -0.200521,-0.458333 -0.630208,-0.773436 -0.429687,-0.315104 -1.131509,-0.315104 -0.630208,0 -1.059895,0.186197 -0.415364,0.171875 -0.673176,0.358073 0.04297,0.286458 0.243489,0.873697 0.200521,0.587239 0.200521,1.131509 0,0.243489 -0.128906,0.615885 -0.128906,0.358072 -0.372396,0.572916 -0.329426,0.286458 -0.74479,0.44401 -0.401042,0.157552 -1.246093,0.157552 -1.203123,0 -1.819008,-0.572917 -0.615885,-0.587238 -0.615885,-1.518227 0,-0.802082 0.630208,-1.43229 0.64453,-0.64453 1.561196,-1.059895 0.902343,-0.429687 2.07682,-0.658853 1.174478,-0.243489 2.177081,-0.243489 1.389322,0 2.549477,0.171875 1.160154,0.157551 2.091143,0.673176 0.88802,0.501301 1.403644,1.460936 0.529947,0.945311 0.529947,2.477861 0,1.618488 -0.07161,3.838538 -0.05729,2.220049 -0.05729,2.921871 0,0.644531 0.186198,1.016926 0.200521,0.372396 0.601562,0.558593 0.243489,0.114584 0.759114,0.143229 0.529947,0.01432 0.959634,0.01432 z m -7.118481,-7.462231 q -0.802083,0.272135 -1.589842,0.630208 -0.78776,0.343749 -1.289061,0.730467 -0.529948,0.401042 -0.830729,1.031249 -0.300781,0.615885 -0.300781,1.460936 0,1.117186 0.501302,1.618488 0.515624,0.501301 1.260415,0.501301 0.78776,0 1.289061,-0.315103 0.515625,-0.329427 0.902343,-0.802083 z"
       id="text6"
       aria-label="a" />
  </g>
</svg>
