<?xml version="1.0" encoding="UTF-8" standalone="no"?>
<!-- Created with Inkscape (http://www.inkscape.org/) -->

<svg
   width="24"
   height="24"
   viewBox="0 0 24 24"
   version="1.1"
   id="svg1"
   inkscape:version="1.3.2 (091e20e, 2023-11-25, custom)"
   sodipodi:docname="variable.svg"
   xmlns:inkscape="http://www.inkscape.org/namespaces/inkscape"
   xmlns:sodipodi="http://sodipodi.sourceforge.net/DTD/sodipodi-0.dtd"
   xmlns:xlink="http://www.w3.org/1999/xlink"
   xmlns="http://www.w3.org/2000/svg"
   xmlns:svg="http://www.w3.org/2000/svg">
  <sodipodi:namedview
     id="namedview1"
     pagecolor="#ffffff"
     bordercolor="#111111"
     borderopacity="1"
     inkscape:showpageshadow="0"
     inkscape:pageopacity="0"
     inkscape:pagecheckerboard="1"
     inkscape:deskcolor="#d1d1d1"
     inkscape:document-units="px"
     inkscape:zoom="24.189242"
     inkscape:cx="15.854155"
     inkscape:cy="22.241292"
     inkscape:window-width="2560"
     inkscape:window-height="1414"
     inkscape:window-x="-4"
     inkscape:window-y="1436"
     inkscape:window-maximized="1"
     inkscape:current-layer="layer1" />
  <defs
     id="defs1">
    <style>
      :root {
        --basiccolor: rgb(20,20,20);
        --iconStroke: var(--basiccolor);
        --icon-fill: #A0A0A0;
        --stroke-opacity: 0.9;
        --text-fill: #161;
        --gradient1: #00d115;
        --gradient2: #f6ff3e;
      }
      @media (prefers-color-scheme: dark) {
        :root { 
          --basiccolor: rgb(251,251,254);
          --iconStroke: var(--basiccolor);
          --icon-fill: #606060;
          --stroke-opacity: 0.8;
          --text-fill: var(--basiccolor);
          --gradient1: #235e23;
          --gradient2: #f6ff3e;
        }
      }        
    </style>     
    <linearGradient
       id="linearGradient2"
       inkscape:collect="always">
      <stop
         style="stop-color:var(--gradient1);stop-opacity:1;"
         offset="0"
         id="stop2" />
      <stop
         style="stop-color:var(--gradient2);stop-opacity:1;"
         offset="1"
         id="stop3" />
    </linearGradient>
    <linearGradient
       inkscape:collect="always"
       xlink:href="#linearGradient2"
       id="linearGradient3"
       x1="0"
       y1="12.053754"
       x2="23.916708"
       y2="12.053754"
       gradientUnits="userSpaceOnUse"
       gradientTransform="translate(0.09539938,-24.012108)" />
  </defs>
  <g
     inkscape:label="Layer 1"
     inkscape:groupmode="layer"
     id="layer1">
    <rect
      style="stroke:var(--text-fill);fill:url(#linearGradient3);stroke-width:3px;"
      id="gradientrect"
      width="22.006248"
      height="21.982033"
      x="1.0506294"
      y="-22.949371"
      rx="1.1516494"
      ry="1.4666969"
      transform="rotate(90)" />
    <path
      id="text2"
      style="fill:var(--text-fill);stroke:var(--iconStroke);font-weight:bold;font-size:34.2723px;font-family:Bahnschrift;-inkscape-font-specification:'Bahnschrift Bold';stroke-width:0;stroke-dasharray:none;"
      d="m 7.8911696,3.8560666 c -0.9471839,0 -1.6826255,0.2358317 -2.2054711,0.7086184 C 5.1704308,5.0305187 4.9128018,5.6843332 4.9128018,6.5256149 v 1.304026 c 0,0.8412822 0.257629,1.4979278 0.7728967,1.9707133 0.5228456,0.4658348 1.2582872,0.6988358 2.2054711,0.6988358 0.9471835,0 1.6786499,-0.233001 2.1939184,-0.6988358 C 10.607934,9.33452 10.868382,8.6778758 10.868382,7.8296409 V 6.5465802 c 0,-0.8551874 -0.257629,-1.5160615 -0.772896,-1.9818952 C 9.5802172,4.0918983 8.8459305,3.8560666 7.8911696,3.8560666 Z M 15.028623,4.0014242 6.3904326,19.166137 H 9.2209218 L 17.859113,4.0014242 Z M 7.8911696,6.014068 c 0.1667042,0 0.2921208,0.052248 0.3754731,0.156539 0.090929,0.09734 0.1363255,0.2371317 0.1363255,0.4179031 v 1.1474871 c 0,0.194676 -0.045396,0.342962 -0.1363255,0.4472534 C 8.1832902,8.2875425 8.0578738,8.33979 7.8911696,8.33979 7.7244651,8.33979 7.5950731,8.2917688 7.5041435,8.1944321 7.4207909,8.0901405 7.379371,7.9376261 7.379371,7.7359972 V 6.6094751 c 0,-0.1946766 0.04142,-0.3415296 0.1247725,-0.4388681 0.090929,-0.1042914 0.2203216,-0.156539 0.3870261,-0.156539 z m 8.2176614,6.664088 c -0.947184,0 -1.682624,0.237228 -2.20547,0.710016 -0.515268,0.465833 -0.772898,1.119648 -0.772898,1.96093 v 1.302627 c 0,0.841284 0.25763,1.499323 0.772898,1.972112 0.522846,0.465834 1.258286,0.698835 2.20547,0.698835 0.947182,0 1.67865,-0.233001 2.193918,-0.698835 0.522844,-0.465835 0.784449,-1.123875 0.784449,-1.972112 v -1.281661 c 0,-0.855188 -0.257628,-1.516063 -0.772896,-1.981896 -0.515267,-0.472788 -1.250711,-0.710016 -2.205471,-0.710016 z m 0,2.159398 c 0.166704,0 0.29212,0.05224 0.375474,0.156539 0.09093,0.09733 0.136325,0.235735 0.136325,0.416506 v 1.147485 c 0,0.194679 -0.04539,0.344362 -0.136325,0.448654 -0.08335,0.104282 -0.20877,0.156539 -0.375474,0.156539 -0.166705,0 -0.296098,-0.04801 -0.387026,-0.145358 -0.08335,-0.104282 -0.124773,-0.258204 -0.124773,-0.459835 v -1.12652 c 0,-0.194675 0.04142,-0.340132 0.124773,-0.437471 0.09093,-0.104282 0.220321,-0.156539 0.387026,-0.156539 z" />
  </g>
</svg>
